<svg width="17" height="17" viewBox="0 0 17 17" fill="none" xmlns="http://www.w3.org/2000/svg">
<circle cx="8.5" cy="8.5" r="8.5" fill="#C4C4C4"/>
<path d="M7.8557 10.1741L9.26751 9.75961C9.13799 9.64304 9.03437 9.42285 9.03437 9.21561C9.03437 8.12761 11.1974 7.98513 11.1974 6.09408C11.1974 4.88951 10.1742 4.04761 8.50332 4.04761C7.38941 4.04761 6.35322 4.50094 5.66675 5.30399L6.71589 6.48266C7.11741 6.00342 7.66141 5.67961 8.30903 5.67961C9.02141 5.67961 9.31932 6.01637 9.31932 6.41789C9.31932 7.31161 7.42827 7.49294 7.42827 9.03427C7.42827 9.48761 7.5837 9.87618 7.8557 10.1741ZM8.47741 12.9588C9.04732 12.9588 9.52656 12.4796 9.52656 11.9097C9.52656 11.3398 9.04732 10.8606 8.47741 10.8606C7.90751 10.8606 7.42827 11.3398 7.42827 11.9097C7.42827 12.4796 7.90751 12.9588 8.47741 12.9588Z" fill="white"/>
</svg>
